<mxfile host="Electron" agent="Mozilla/5.0 (Windows NT 10.0; Win64; x64) AppleWebKit/537.36 (KHTML, like Gecko) draw.io/26.0.16 Chrome/132.0.6834.196 Electron/34.2.0 Safari/537.36" version="26.0.16">
  <diagram name="Page-1" id="VDYSUpoRDSG2aDpyqH4-">
    <mxGraphModel dx="-3800" dy="4193" grid="0" gridSize="10" guides="1" tooltips="1" connect="1" arrows="1" fold="1" page="0" pageScale="1" pageWidth="850" pageHeight="1100" math="0" shadow="0">
      <root>
        <mxCell id="0" />
        <mxCell id="1" parent="0" />
        <mxCell id="ULI18vokIdT51KFedwxw-30" style="edgeStyle=orthogonalEdgeStyle;rounded=0;orthogonalLoop=1;jettySize=auto;html=1;entryX=0.5;entryY=0;entryDx=0;entryDy=0;exitX=0.5;exitY=1;exitDx=0;exitDy=0;strokeWidth=2;endArrow=none;startFill=1;startArrow=classic;" parent="1" source="smL3VV54iWEzO5A8RF6h-3" target="smL3VV54iWEzO5A8RF6h-17" edge="1">
          <mxGeometry relative="1" as="geometry">
            <mxPoint x="13827" y="526.3333333333339" as="targetPoint" />
            <Array as="points">
              <mxPoint x="11735" y="368" />
              <mxPoint x="13620" y="368" />
            </Array>
          </mxGeometry>
        </mxCell>
        <mxCell id="smL3VV54iWEzO5A8RF6h-2" value="&lt;b&gt;&lt;font style=&quot;font-size: 27px;&quot;&gt;UserAccount&lt;/font&gt;&lt;/b&gt;" style="rounded=0;whiteSpace=wrap;html=1;fillColor=#a20025;strokeColor=#6F0000;fillStyle=auto;strokeWidth=2;fontColor=#ffffff;" parent="1" vertex="1">
          <mxGeometry x="11635" y="175" width="200" height="60" as="geometry" />
        </mxCell>
        <mxCell id="smL3VV54iWEzO5A8RF6h-3" value="&lt;b&gt;&lt;font style=&quot;font-size: 30px;&quot;&gt;&lt;u style=&quot;&quot;&gt;UserID&lt;/u&gt;&lt;/font&gt;&lt;/b&gt;" style="rounded=0;whiteSpace=wrap;html=1;strokeWidth=2;" parent="1" vertex="1">
          <mxGeometry x="11635" y="235" width="200" height="80" as="geometry" />
        </mxCell>
        <mxCell id="smL3VV54iWEzO5A8RF6h-4" value="&lt;span style=&quot;font-size: 30px;&quot;&gt;&lt;b&gt;Password&lt;/b&gt;&lt;/span&gt;" style="rounded=0;whiteSpace=wrap;html=1;strokeWidth=2;" parent="1" vertex="1">
          <mxGeometry x="12235" y="235" width="245" height="80" as="geometry" />
        </mxCell>
        <mxCell id="smL3VV54iWEzO5A8RF6h-5" value="&lt;b&gt;&lt;font style=&quot;font-size: 30px;&quot;&gt;UserName&lt;/font&gt;&lt;/b&gt;" style="whiteSpace=wrap;html=1;strokeWidth=2;" parent="1" vertex="1">
          <mxGeometry x="12035" y="235" width="200" height="80" as="geometry" />
        </mxCell>
        <mxCell id="smL3VV54iWEzO5A8RF6h-6" value="&lt;b&gt;&lt;font style=&quot;font-size: 30px;&quot;&gt;UserRole&lt;/font&gt;&lt;/b&gt;" style="rounded=0;whiteSpace=wrap;html=1;strokeWidth=2;" parent="1" vertex="1">
          <mxGeometry x="11835" y="235" width="200" height="80" as="geometry" />
        </mxCell>
        <mxCell id="smL3VV54iWEzO5A8RF6h-7" value="&lt;b&gt;&lt;font style=&quot;font-size: 27px;&quot;&gt;Person&lt;/font&gt;&lt;/b&gt;" style="rounded=0;whiteSpace=wrap;html=1;fillColor=#a20025;strokeColor=#6F0000;fillStyle=auto;strokeWidth=2;fontColor=#ffffff;" parent="1" vertex="1">
          <mxGeometry x="11640" y="440" width="200" height="60" as="geometry" />
        </mxCell>
        <mxCell id="ULI18vokIdT51KFedwxw-46" style="edgeStyle=orthogonalEdgeStyle;rounded=0;orthogonalLoop=1;jettySize=auto;html=1;endArrow=none;startFill=1;strokeWidth=2;startArrow=classic;entryX=0.5;entryY=1;entryDx=0;entryDy=0;" parent="1" source="smL3VV54iWEzO5A8RF6h-8" target="ULI18vokIdT51KFedwxw-45" edge="1">
          <mxGeometry relative="1" as="geometry">
            <mxPoint x="12608" y="1104" as="targetPoint" />
            <Array as="points">
              <mxPoint x="11532" y="540" />
              <mxPoint x="11532" y="1404" />
              <mxPoint x="13676" y="1404" />
              <mxPoint x="13676" y="1354" />
            </Array>
          </mxGeometry>
        </mxCell>
        <mxCell id="ULI18vokIdT51KFedwxw-48" style="edgeStyle=orthogonalEdgeStyle;rounded=0;orthogonalLoop=1;jettySize=auto;html=1;strokeWidth=2;endArrow=none;startFill=0;endFill=1;startArrow=classic;" parent="1" source="smL3VV54iWEzO5A8RF6h-8" target="ULI18vokIdT51KFedwxw-47" edge="1">
          <mxGeometry relative="1" as="geometry">
            <Array as="points">
              <mxPoint x="11712" y="634" />
              <mxPoint x="13020" y="634" />
            </Array>
          </mxGeometry>
        </mxCell>
        <mxCell id="smL3VV54iWEzO5A8RF6h-8" value="&lt;b&gt;&lt;font style=&quot;font-size: 30px;&quot;&gt;&lt;u style=&quot;&quot;&gt;PersonID&lt;/u&gt;&lt;/font&gt;&lt;/b&gt;" style="rounded=0;whiteSpace=wrap;html=1;strokeWidth=2;" parent="1" vertex="1">
          <mxGeometry x="11640" y="500" width="200" height="80" as="geometry" />
        </mxCell>
        <mxCell id="smL3VV54iWEzO5A8RF6h-9" value="&lt;b&gt;&lt;font style=&quot;font-size: 30px;&quot;&gt;PhoneNumber&lt;/font&gt;&lt;/b&gt;" style="rounded=0;whiteSpace=wrap;html=1;strokeWidth=2;" parent="1" vertex="1">
          <mxGeometry x="12240" y="500" width="240" height="80" as="geometry" />
        </mxCell>
        <mxCell id="smL3VV54iWEzO5A8RF6h-10" value="&lt;b&gt;&lt;font style=&quot;font-size: 30px;&quot;&gt;LName&lt;/font&gt;&lt;/b&gt;" style="whiteSpace=wrap;html=1;strokeWidth=2;" parent="1" vertex="1">
          <mxGeometry x="12040" y="500" width="200" height="80" as="geometry" />
        </mxCell>
        <mxCell id="smL3VV54iWEzO5A8RF6h-11" value="&lt;b&gt;&lt;font style=&quot;font-size: 30px;&quot;&gt;FName&lt;/font&gt;&lt;/b&gt;" style="rounded=0;whiteSpace=wrap;html=1;strokeWidth=2;" parent="1" vertex="1">
          <mxGeometry x="11840" y="500" width="200" height="80" as="geometry" />
        </mxCell>
        <mxCell id="smL3VV54iWEzO5A8RF6h-12" value="&lt;b&gt;&lt;font style=&quot;font-size: 30px;&quot;&gt;Address&lt;/font&gt;&lt;/b&gt;" style="rounded=0;whiteSpace=wrap;html=1;strokeWidth=2;" parent="1" vertex="1">
          <mxGeometry x="12920" y="500" width="200" height="80" as="geometry" />
        </mxCell>
        <mxCell id="smL3VV54iWEzO5A8RF6h-13" value="&lt;span style=&quot;font-size: 30px;&quot;&gt;&lt;b&gt;Gender&lt;/b&gt;&lt;/span&gt;" style="rounded=0;whiteSpace=wrap;html=1;strokeWidth=2;" parent="1" vertex="1">
          <mxGeometry x="12480" y="500" width="205.33" height="80" as="geometry" />
        </mxCell>
        <mxCell id="smL3VV54iWEzO5A8RF6h-14" value="&lt;span style=&quot;font-size: 30px;&quot;&gt;&lt;b&gt;Email&lt;/b&gt;&lt;/span&gt;" style="rounded=0;whiteSpace=wrap;html=1;strokeWidth=2;" parent="1" vertex="1">
          <mxGeometry x="12685.33" y="500" width="234.67" height="80" as="geometry" />
        </mxCell>
        <mxCell id="smL3VV54iWEzO5A8RF6h-15" value="&lt;b&gt;&lt;font style=&quot;font-size: 30px;&quot;&gt;NationalID&lt;/font&gt;&lt;/b&gt;" style="rounded=0;whiteSpace=wrap;html=1;strokeWidth=2;" parent="1" vertex="1">
          <mxGeometry x="13120" y="500" width="200" height="80" as="geometry" />
        </mxCell>
        <mxCell id="smL3VV54iWEzO5A8RF6h-16" value="&lt;b&gt;&lt;font style=&quot;font-size: 30px;&quot;&gt;DateOFBirth&lt;/font&gt;&lt;/b&gt;" style="rounded=0;whiteSpace=wrap;html=1;strokeWidth=2;" parent="1" vertex="1">
          <mxGeometry x="13320" y="499.9999999999999" width="200" height="80" as="geometry" />
        </mxCell>
        <mxCell id="smL3VV54iWEzO5A8RF6h-17" value="&lt;b&gt;&lt;font style=&quot;font-size: 30px;&quot;&gt;UserID&lt;/font&gt;&lt;/b&gt;" style="rounded=0;whiteSpace=wrap;html=1;strokeWidth=2;" parent="1" vertex="1">
          <mxGeometry x="13520" y="499.9999999999999" width="200" height="80" as="geometry" />
        </mxCell>
        <mxCell id="smL3VV54iWEzO5A8RF6h-39" value="&lt;b&gt;&lt;font style=&quot;font-size: 27px;&quot;&gt;Manager&lt;/font&gt;&lt;/b&gt;" style="rounded=0;whiteSpace=wrap;html=1;fillColor=#a20025;strokeColor=#6F0000;fillStyle=auto;strokeWidth=2;fontColor=#ffffff;" parent="1" vertex="1">
          <mxGeometry x="11643" y="685.6899999999999" width="200" height="60" as="geometry" />
        </mxCell>
        <mxCell id="smL3VV54iWEzO5A8RF6h-40" style="edgeStyle=orthogonalEdgeStyle;rounded=0;orthogonalLoop=1;jettySize=auto;html=1;strokeWidth=2;exitX=0.5;exitY=0;exitDx=0;exitDy=0;entryX=0.25;entryY=1;entryDx=0;entryDy=0;endArrow=classic;startFill=0;startArrow=none;endFill=1;" parent="1" source="ULI18vokIdT51KFedwxw-41" target="smL3VV54iWEzO5A8RF6h-8" edge="1">
          <mxGeometry relative="1" as="geometry">
            <mxPoint x="11640" y="832" as="sourcePoint" />
            <mxPoint x="11640" y="549.09" as="targetPoint" />
            <Array as="points">
              <mxPoint x="12613" y="656" />
              <mxPoint x="11690" y="656" />
            </Array>
          </mxGeometry>
        </mxCell>
        <mxCell id="ULI18vokIdT51KFedwxw-44" style="edgeStyle=orthogonalEdgeStyle;rounded=0;orthogonalLoop=1;jettySize=auto;html=1;entryX=0.5;entryY=1;entryDx=0;entryDy=0;endArrow=none;startFill=1;strokeWidth=2;startArrow=classic;" parent="1" source="smL3VV54iWEzO5A8RF6h-41" target="ULI18vokIdT51KFedwxw-34" edge="1">
          <mxGeometry relative="1" as="geometry">
            <mxPoint x="11680" y="1928" as="targetPoint" />
            <Array as="points">
              <mxPoint x="11743" y="861" />
              <mxPoint x="11433" y="861" />
              <mxPoint x="11433" y="1928" />
              <mxPoint x="12830" y="1928" />
            </Array>
          </mxGeometry>
        </mxCell>
        <mxCell id="smL3VV54iWEzO5A8RF6h-41" value="&lt;b&gt;&lt;font style=&quot;font-size: 30px;&quot;&gt;&lt;u&gt;ManagerID&lt;/u&gt;&lt;/font&gt;&lt;/b&gt;" style="rounded=0;whiteSpace=wrap;html=1;strokeWidth=2;" parent="1" vertex="1">
          <mxGeometry x="11643" y="745.69" width="200" height="79.31" as="geometry" />
        </mxCell>
        <mxCell id="smL3VV54iWEzO5A8RF6h-42" value="&lt;b&gt;&lt;font style=&quot;font-size: 30px;&quot;&gt;ExperienceYears&lt;/font&gt;&lt;/b&gt;" style="rounded=0;whiteSpace=wrap;html=1;strokeWidth=2;" parent="1" vertex="1">
          <mxGeometry x="12243" y="745.69" width="270" height="80" as="geometry" />
        </mxCell>
        <mxCell id="smL3VV54iWEzO5A8RF6h-43" value="&lt;b&gt;&lt;font style=&quot;font-size: 30px;&quot;&gt;HireDate&lt;/font&gt;&lt;/b&gt;" style="whiteSpace=wrap;html=1;strokeWidth=2;" parent="1" vertex="1">
          <mxGeometry x="12043" y="745.69" width="200" height="80.31" as="geometry" />
        </mxCell>
        <mxCell id="smL3VV54iWEzO5A8RF6h-44" value="&lt;b&gt;&lt;font style=&quot;font-size: 30px;&quot;&gt;Salary&lt;/font&gt;&lt;/b&gt;" style="rounded=0;whiteSpace=wrap;html=1;strokeWidth=2;" parent="1" vertex="1">
          <mxGeometry x="11843" y="745.6899999999999" width="200" height="80" as="geometry" />
        </mxCell>
        <mxCell id="smL3VV54iWEzO5A8RF6h-45" value="&lt;b&gt;&lt;font style=&quot;font-size: 27px;&quot;&gt;Instructor&lt;/font&gt;&lt;/b&gt;" style="rounded=0;whiteSpace=wrap;html=1;fillColor=#a20025;strokeColor=#6F0000;fillStyle=auto;strokeWidth=2;fontColor=#ffffff;" parent="1" vertex="1">
          <mxGeometry x="11640" y="959.9999999999999" width="200" height="60" as="geometry" />
        </mxCell>
        <mxCell id="smL3VV54iWEzO5A8RF6h-47" value="&lt;span style=&quot;font-size: 30px;&quot;&gt;&lt;b&gt;&lt;u&gt;InstructorID&lt;/u&gt;&lt;/b&gt;&lt;/span&gt;" style="rounded=0;whiteSpace=wrap;html=1;strokeWidth=2;" parent="1" vertex="1">
          <mxGeometry x="11640" y="1019.9999999999999" width="200" height="80" as="geometry" />
        </mxCell>
        <mxCell id="smL3VV54iWEzO5A8RF6h-48" value="&lt;b&gt;&lt;font style=&quot;font-size: 30px;&quot;&gt;ExperienceYears&lt;/font&gt;&lt;/b&gt;" style="rounded=0;whiteSpace=wrap;html=1;strokeWidth=2;" parent="1" vertex="1">
          <mxGeometry x="12240" y="1020" width="260" height="80" as="geometry" />
        </mxCell>
        <mxCell id="smL3VV54iWEzO5A8RF6h-49" value="&#xa;&lt;b style=&quot;forced-color-adjust: none; color: rgb(0, 0, 0); font-family: Helvetica; font-size: 12px; font-style: normal; font-variant-ligatures: normal; font-variant-caps: normal; letter-spacing: normal; orphans: 2; text-align: center; text-indent: 0px; text-transform: none; widows: 2; word-spacing: 0px; -webkit-text-stroke-width: 0px; white-space: normal; background-color: rgb(251, 251, 251); text-decoration-thickness: initial; text-decoration-style: initial; text-decoration-color: initial;&quot;&gt;&lt;font style=&quot;forced-color-adjust: none; font-size: 30px;&quot;&gt;HireDate&lt;/font&gt;&lt;/b&gt;&#xa;&#xa;" style="whiteSpace=wrap;html=1;strokeWidth=2;" parent="1" vertex="1">
          <mxGeometry x="12040" y="1019.9999999999999" width="200" height="80" as="geometry" />
        </mxCell>
        <mxCell id="smL3VV54iWEzO5A8RF6h-50" value="&lt;b&gt;&lt;font style=&quot;font-size: 30px;&quot;&gt;Salary&lt;/font&gt;&lt;/b&gt;" style="rounded=0;whiteSpace=wrap;html=1;strokeWidth=2;" parent="1" vertex="1">
          <mxGeometry x="11840" y="1019.9999999999999" width="200" height="80" as="geometry" />
        </mxCell>
        <mxCell id="smL3VV54iWEzO5A8RF6h-51" value="&lt;b&gt;&lt;font style=&quot;font-size: 27px;&quot;&gt;Student&lt;/font&gt;&lt;/b&gt;" style="rounded=0;whiteSpace=wrap;html=1;fillColor=#a20025;strokeColor=#6F0000;fillStyle=auto;strokeWidth=2;fontColor=#ffffff;" parent="1" vertex="1">
          <mxGeometry x="11640" y="1213.75" width="200" height="60" as="geometry" />
        </mxCell>
        <mxCell id="smL3VV54iWEzO5A8RF6h-53" value="&lt;b&gt;&lt;font style=&quot;font-size: 30px;&quot;&gt;&lt;u style=&quot;&quot;&gt;StudentID&lt;/u&gt;&lt;/font&gt;&lt;/b&gt;" style="rounded=0;whiteSpace=wrap;html=1;strokeWidth=2;" parent="1" vertex="1">
          <mxGeometry x="11640" y="1273.75" width="200" height="80" as="geometry" />
        </mxCell>
        <mxCell id="smL3VV54iWEzO5A8RF6h-54" value="&lt;b&gt;&lt;font style=&quot;font-size: 30px;&quot;&gt;MilitaryStatus&lt;/font&gt;&lt;/b&gt;" style="rounded=0;whiteSpace=wrap;html=1;strokeWidth=2;" parent="1" vertex="1">
          <mxGeometry x="12240" y="1273.75" width="240" height="80" as="geometry" />
        </mxCell>
        <mxCell id="smL3VV54iWEzO5A8RF6h-55" value="&lt;b&gt;&lt;font style=&quot;font-size: 30px;&quot;&gt;Gpa&lt;/font&gt;&lt;/b&gt;" style="whiteSpace=wrap;html=1;strokeWidth=2;" parent="1" vertex="1">
          <mxGeometry x="12060" y="1273.75" width="180" height="80" as="geometry" />
        </mxCell>
        <mxCell id="smL3VV54iWEzO5A8RF6h-56" value="&lt;b&gt;&lt;font style=&quot;font-size: 30px;&quot;&gt;MaritalStutus&lt;/font&gt;&lt;/b&gt;" style="rounded=0;whiteSpace=wrap;html=1;strokeWidth=2;" parent="1" vertex="1">
          <mxGeometry x="11840" y="1273.75" width="220" height="80" as="geometry" />
        </mxCell>
        <mxCell id="smL3VV54iWEzO5A8RF6h-57" value="&lt;b&gt;&lt;font style=&quot;font-size: 30px;&quot;&gt;GraduationYear&lt;/font&gt;&lt;/b&gt;" style="rounded=0;whiteSpace=wrap;html=1;strokeWidth=2;" parent="1" vertex="1">
          <mxGeometry x="12900" y="1273.75" width="270" height="80" as="geometry" />
        </mxCell>
        <mxCell id="smL3VV54iWEzO5A8RF6h-58" value="&lt;span style=&quot;font-size: 30px;&quot;&gt;&lt;b&gt;Faculty&lt;/b&gt;&lt;/span&gt;" style="rounded=0;whiteSpace=wrap;html=1;strokeWidth=2;" parent="1" vertex="1">
          <mxGeometry x="12480" y="1273.75" width="170" height="80" as="geometry" />
        </mxCell>
        <mxCell id="smL3VV54iWEzO5A8RF6h-59" value="&lt;span style=&quot;font-size: 30px;&quot;&gt;&lt;b&gt;EnrollmentDate&lt;/b&gt;&lt;/span&gt;" style="rounded=0;whiteSpace=wrap;html=1;strokeWidth=2;" parent="1" vertex="1">
          <mxGeometry x="12650" y="1273.75" width="250" height="80" as="geometry" />
        </mxCell>
        <mxCell id="smL3VV54iWEzO5A8RF6h-60" value="&lt;b&gt;&lt;font style=&quot;font-size: 30px;&quot;&gt;NationalID&lt;/font&gt;&lt;/b&gt;" style="rounded=0;whiteSpace=wrap;html=1;strokeWidth=2;" parent="1" vertex="1">
          <mxGeometry x="13170" y="1273.75" width="200" height="80" as="geometry" />
        </mxCell>
        <mxCell id="smL3VV54iWEzO5A8RF6h-64" value="&lt;b&gt;&lt;font style=&quot;font-size: 27px;&quot;&gt;Course&lt;/font&gt;&lt;/b&gt;" style="rounded=0;whiteSpace=wrap;html=1;fillColor=#a20025;strokeColor=#6F0000;fillStyle=auto;strokeWidth=2;fontColor=#ffffff;" parent="1" vertex="1">
          <mxGeometry x="11640" y="1513.75" width="200" height="60" as="geometry" />
        </mxCell>
        <mxCell id="smL3VV54iWEzO5A8RF6h-65" value="&lt;b&gt;&lt;font style=&quot;font-size: 30px;&quot;&gt;&lt;u style=&quot;&quot;&gt;CourseID&lt;/u&gt;&lt;/font&gt;&lt;/b&gt;" style="rounded=0;whiteSpace=wrap;html=1;strokeWidth=2;" parent="1" vertex="1">
          <mxGeometry x="11640" y="1573.75" width="200" height="80" as="geometry" />
        </mxCell>
        <mxCell id="smL3VV54iWEzO5A8RF6h-66" value="&lt;b&gt;&lt;font style=&quot;font-size: 30px;&quot;&gt;MinDegree&lt;/font&gt;&lt;/b&gt;" style="rounded=0;whiteSpace=wrap;html=1;strokeWidth=2;" parent="1" vertex="1">
          <mxGeometry x="12240" y="1573.75" width="200" height="80" as="geometry" />
        </mxCell>
        <mxCell id="smL3VV54iWEzO5A8RF6h-67" value="&lt;b&gt;&lt;font style=&quot;font-size: 30px;&quot;&gt;Course&lt;/font&gt;&lt;/b&gt;&lt;div&gt;&lt;b&gt;&lt;font style=&quot;font-size: 30px;&quot;&gt;Description&lt;/font&gt;&lt;/b&gt;&lt;/div&gt;" style="whiteSpace=wrap;html=1;strokeWidth=2;" parent="1" vertex="1">
          <mxGeometry x="12060" y="1573.75" width="180" height="80" as="geometry" />
        </mxCell>
        <mxCell id="smL3VV54iWEzO5A8RF6h-68" value="&lt;b&gt;&lt;font style=&quot;font-size: 30px;&quot;&gt;CourseName&lt;/font&gt;&lt;/b&gt;" style="rounded=0;whiteSpace=wrap;html=1;strokeWidth=2;" parent="1" vertex="1">
          <mxGeometry x="11840" y="1573.75" width="220" height="80" as="geometry" />
        </mxCell>
        <mxCell id="smL3VV54iWEzO5A8RF6h-69" value="&lt;span style=&quot;font-size: 30px;&quot;&gt;&lt;b&gt;MaxDegree&lt;/b&gt;&lt;/span&gt;" style="rounded=0;whiteSpace=wrap;html=1;strokeWidth=2;" parent="1" vertex="1">
          <mxGeometry x="12440" y="1573.75" width="190" height="80" as="geometry" />
        </mxCell>
        <mxCell id="smL3VV54iWEzO5A8RF6h-77" value="&lt;b&gt;&lt;font style=&quot;font-size: 27px;&quot;&gt;StudentCource&lt;/font&gt;&lt;/b&gt;" style="rounded=0;whiteSpace=wrap;html=1;fillColor=#a20025;strokeColor=#6F0000;fillStyle=auto;strokeWidth=2;fontColor=#ffffff;" parent="1" vertex="1">
          <mxGeometry x="13730" y="940" width="230" height="60" as="geometry" />
        </mxCell>
        <mxCell id="smL3VV54iWEzO5A8RF6h-78" style="edgeStyle=orthogonalEdgeStyle;rounded=0;orthogonalLoop=1;jettySize=auto;html=1;entryX=0;entryY=0.078;entryDx=0;entryDy=0;entryPerimeter=0;strokeWidth=2;exitX=0.449;exitY=0.98;exitDx=0;exitDy=0;exitPerimeter=0;" parent="1" source="smL3VV54iWEzO5A8RF6h-79" target="smL3VV54iWEzO5A8RF6h-53" edge="1">
          <mxGeometry relative="1" as="geometry">
            <mxPoint x="13700" y="1047.5000000000005" as="sourcePoint" />
            <mxPoint x="11610" y="1281.2500000000005" as="targetPoint" />
            <Array as="points">
              <mxPoint x="13838" y="1170" />
              <mxPoint x="11620" y="1170" />
              <mxPoint x="11620" y="1280" />
            </Array>
          </mxGeometry>
        </mxCell>
        <mxCell id="smL3VV54iWEzO5A8RF6h-79" value="&lt;b&gt;&lt;font style=&quot;font-size: 30px;&quot;&gt;&lt;u&gt;StudentID&lt;/u&gt;&lt;/font&gt;&lt;/b&gt;" style="rounded=0;whiteSpace=wrap;html=1;strokeWidth=2;" parent="1" vertex="1">
          <mxGeometry x="13730" y="1000" width="240" height="80" as="geometry" />
        </mxCell>
        <mxCell id="smL3VV54iWEzO5A8RF6h-80" style="edgeStyle=orthogonalEdgeStyle;rounded=0;orthogonalLoop=1;jettySize=auto;html=1;strokeWidth=2;entryX=0.001;entryY=0.463;entryDx=0;entryDy=0;entryPerimeter=0;" parent="1" source="smL3VV54iWEzO5A8RF6h-81" target="smL3VV54iWEzO5A8RF6h-65" edge="1">
          <mxGeometry relative="1" as="geometry">
            <Array as="points">
              <mxPoint x="14055" y="1491" />
              <mxPoint x="11590" y="1491" />
              <mxPoint x="11590" y="1611" />
            </Array>
          </mxGeometry>
        </mxCell>
        <mxCell id="smL3VV54iWEzO5A8RF6h-81" value="&lt;b&gt;&lt;font style=&quot;font-size: 30px;&quot;&gt;&lt;u&gt;CourseID&lt;/u&gt;&lt;/font&gt;&lt;/b&gt;" style="rounded=0;whiteSpace=wrap;html=1;strokeWidth=2;" parent="1" vertex="1">
          <mxGeometry x="13960" y="1000" width="190" height="80" as="geometry" />
        </mxCell>
        <mxCell id="smL3VV54iWEzO5A8RF6h-91" value="&lt;b&gt;&lt;font style=&quot;font-size: 30px;&quot;&gt;&lt;u&gt;BranchID&lt;/u&gt;&lt;/font&gt;&lt;/b&gt;" style="rounded=0;whiteSpace=wrap;html=1;strokeWidth=2;" parent="1" vertex="1">
          <mxGeometry x="11640" y="1809.63" width="200" height="80" as="geometry" />
        </mxCell>
        <mxCell id="smL3VV54iWEzO5A8RF6h-92" value="&lt;br&gt;&lt;b style=&quot;forced-color-adjust: none; color: rgb(0, 0, 0); font-family: Helvetica; font-size: 12px; font-style: normal; font-variant-ligatures: normal; font-variant-caps: normal; letter-spacing: normal; orphans: 2; text-align: center; text-indent: 0px; text-transform: none; widows: 2; word-spacing: 0px; -webkit-text-stroke-width: 0px; white-space: normal; background-color: rgb(251, 251, 251); text-decoration-thickness: initial; text-decoration-style: initial; text-decoration-color: initial;&quot;&gt;&lt;font style=&quot;forced-color-adjust: none; font-size: 30px;&quot;&gt;BranchEmail&lt;/font&gt;&lt;/b&gt;&lt;div&gt;&lt;br&gt;&lt;/div&gt;" style="rounded=0;whiteSpace=wrap;html=1;strokeWidth=2;" parent="1" vertex="1">
          <mxGeometry x="12320" y="1809.63" width="200" height="80" as="geometry" />
        </mxCell>
        <mxCell id="smL3VV54iWEzO5A8RF6h-93" value="&lt;span style=&quot;font-size: 30px;&quot;&gt;&lt;b&gt;BranchAddress&lt;/b&gt;&lt;/span&gt;" style="whiteSpace=wrap;html=1;strokeWidth=2;" parent="1" vertex="1">
          <mxGeometry x="12060" y="1809.63" width="260" height="80" as="geometry" />
        </mxCell>
        <mxCell id="smL3VV54iWEzO5A8RF6h-94" value="&lt;b&gt;&lt;font style=&quot;font-size: 30px;&quot;&gt;BranchName&lt;/font&gt;&lt;/b&gt;" style="rounded=0;whiteSpace=wrap;html=1;strokeWidth=2;" parent="1" vertex="1">
          <mxGeometry x="11840" y="1809.63" width="220" height="80" as="geometry" />
        </mxCell>
        <mxCell id="smL3VV54iWEzO5A8RF6h-95" value="&lt;div&gt;&lt;br&gt;&lt;b style=&quot;color: rgb(0, 0, 0); background-color: rgb(251, 251, 251);&quot;&gt;&lt;font style=&quot;font-size: 30px;&quot;&gt;BranchPhone&lt;/font&gt;&lt;/b&gt;&lt;div&gt;&lt;br&gt;&lt;/div&gt;&lt;/div&gt;" style="rounded=0;whiteSpace=wrap;html=1;strokeWidth=2;" parent="1" vertex="1">
          <mxGeometry x="12520" y="1809.63" width="210" height="80" as="geometry" />
        </mxCell>
        <mxCell id="smL3VV54iWEzO5A8RF6h-96" value="&lt;b&gt;&lt;font style=&quot;font-size: 27px;&quot;&gt;Intake&lt;/font&gt;&lt;/b&gt;" style="rounded=0;whiteSpace=wrap;html=1;fillColor=#a20025;strokeColor=#6F0000;fillStyle=auto;strokeWidth=2;fontColor=#ffffff;" parent="1" vertex="1">
          <mxGeometry x="11635" y="1991.88" width="200" height="66.25" as="geometry" />
        </mxCell>
        <mxCell id="smL3VV54iWEzO5A8RF6h-97" value="&lt;b&gt;&lt;font style=&quot;font-size: 30px;&quot;&gt;&lt;u&gt;IntakeID&lt;/u&gt;&lt;/font&gt;&lt;/b&gt;" style="rounded=0;whiteSpace=wrap;html=1;strokeWidth=2;" parent="1" vertex="1">
          <mxGeometry x="11635" y="2051.88" width="200" height="80" as="geometry" />
        </mxCell>
        <mxCell id="smL3VV54iWEzO5A8RF6h-98" value="&lt;div&gt;&lt;b&gt;&lt;font style=&quot;font-size: 30px;&quot;&gt;EndDate&lt;/font&gt;&lt;/b&gt;&lt;/div&gt;" style="rounded=0;whiteSpace=wrap;html=1;strokeWidth=2;" parent="1" vertex="1">
          <mxGeometry x="12315" y="2051.88" width="200" height="80" as="geometry" />
        </mxCell>
        <mxCell id="smL3VV54iWEzO5A8RF6h-99" value="&lt;span style=&quot;font-size: 30px;&quot;&gt;&lt;b&gt;StartDate&lt;/b&gt;&lt;/span&gt;" style="whiteSpace=wrap;html=1;strokeWidth=2;" parent="1" vertex="1">
          <mxGeometry x="12055" y="2051.88" width="260" height="80" as="geometry" />
        </mxCell>
        <mxCell id="smL3VV54iWEzO5A8RF6h-100" value="&lt;b&gt;&lt;font style=&quot;font-size: 30px;&quot;&gt;IntakeName&lt;/font&gt;&lt;/b&gt;" style="rounded=0;whiteSpace=wrap;html=1;strokeWidth=2;" parent="1" vertex="1">
          <mxGeometry x="11835" y="2051.88" width="220" height="80" as="geometry" />
        </mxCell>
        <mxCell id="smL3VV54iWEzO5A8RF6h-101" value="&lt;br&gt;&lt;span style=&quot;font-size: 30px;&quot;&gt;&lt;b&gt;Year&lt;/b&gt;&lt;/span&gt;&lt;br&gt;&lt;div&gt;&lt;br&gt;&lt;/div&gt;" style="rounded=0;whiteSpace=wrap;html=1;strokeWidth=2;" parent="1" vertex="1">
          <mxGeometry x="12515" y="2051.88" width="210" height="80" as="geometry" />
        </mxCell>
        <mxCell id="smL3VV54iWEzO5A8RF6h-102" value="&lt;b&gt;&lt;font style=&quot;font-size: 27px;&quot;&gt;Track&lt;/font&gt;&lt;/b&gt;" style="rounded=0;whiteSpace=wrap;html=1;fillColor=#a20025;strokeColor=#6F0000;fillStyle=auto;strokeWidth=2;fontColor=#ffffff;" parent="1" vertex="1">
          <mxGeometry x="11635" y="2250.63" width="200" height="66.25" as="geometry" />
        </mxCell>
        <mxCell id="smL3VV54iWEzO5A8RF6h-103" value="&lt;b&gt;&lt;font style=&quot;font-size: 30px;&quot;&gt;&lt;u&gt;TrackID&lt;/u&gt;&lt;/font&gt;&lt;/b&gt;" style="rounded=0;whiteSpace=wrap;html=1;strokeWidth=2;" parent="1" vertex="1">
          <mxGeometry x="11635" y="2311" width="200" height="79.26" as="geometry" />
        </mxCell>
        <mxCell id="smL3VV54iWEzO5A8RF6h-104" value="&lt;b&gt;&lt;font style=&quot;font-size: 30px;&quot;&gt;TrackName&lt;/font&gt;&lt;/b&gt;" style="rounded=0;whiteSpace=wrap;html=1;strokeWidth=2;" parent="1" vertex="1">
          <mxGeometry x="11835" y="2310.63" width="220" height="80" as="geometry" />
        </mxCell>
        <mxCell id="smL3VV54iWEzO5A8RF6h-105" value="&lt;b&gt;&lt;font style=&quot;font-size: 27px;&quot;&gt;Department&lt;/font&gt;&lt;/b&gt;" style="rounded=0;whiteSpace=wrap;html=1;fillColor=#a20025;strokeColor=#6F0000;fillStyle=auto;strokeWidth=2;fontColor=#ffffff;" parent="1" vertex="1">
          <mxGeometry x="12720" y="2242.5" width="225" height="66.25" as="geometry" />
        </mxCell>
        <mxCell id="smL3VV54iWEzO5A8RF6h-106" value="&lt;b&gt;&lt;font style=&quot;font-size: 30px;&quot;&gt;&lt;u&gt;DepartmentID&lt;/u&gt;&lt;/font&gt;&lt;/b&gt;" style="rounded=0;whiteSpace=wrap;html=1;strokeWidth=2;" parent="1" vertex="1">
          <mxGeometry x="12720" y="2310" width="225" height="72.5" as="geometry" />
        </mxCell>
        <mxCell id="smL3VV54iWEzO5A8RF6h-107" value="&lt;b&gt;&lt;font style=&quot;font-size: 30px;&quot;&gt;DepartmentName&lt;/font&gt;&lt;/b&gt;" style="rounded=0;whiteSpace=wrap;html=1;strokeWidth=2;" parent="1" vertex="1">
          <mxGeometry x="12945" y="2310" width="260" height="72.5" as="geometry" />
        </mxCell>
        <mxCell id="smL3VV54iWEzO5A8RF6h-125" value="&lt;span style=&quot;font-size: 27px;&quot;&gt;&lt;b&gt;BranchIntakeTrack&lt;/b&gt;&lt;/span&gt;" style="rounded=0;whiteSpace=wrap;html=1;fillColor=#a20025;strokeColor=#6F0000;fillStyle=auto;strokeWidth=2;fontColor=#ffffff;" parent="1" vertex="1">
          <mxGeometry x="11635" y="2551.88" width="395" height="66.25" as="geometry" />
        </mxCell>
        <mxCell id="smL3VV54iWEzO5A8RF6h-126" style="edgeStyle=orthogonalEdgeStyle;rounded=0;orthogonalLoop=1;jettySize=auto;html=1;strokeWidth=2;entryX=0;entryY=0.5;entryDx=0;entryDy=0;" parent="1" source="smL3VV54iWEzO5A8RF6h-127" target="smL3VV54iWEzO5A8RF6h-91" edge="1">
          <mxGeometry relative="1" as="geometry">
            <Array as="points">
              <mxPoint x="11933" y="2739" />
              <mxPoint x="11528" y="2739" />
              <mxPoint x="11528" y="1850" />
            </Array>
            <mxPoint x="11527" y="1783" as="targetPoint" />
          </mxGeometry>
        </mxCell>
        <mxCell id="smL3VV54iWEzO5A8RF6h-127" value="&lt;b&gt;&lt;font style=&quot;font-size: 30px;&quot;&gt;BranchID&lt;/font&gt;&lt;/b&gt;" style="rounded=0;whiteSpace=wrap;html=1;strokeWidth=2;" parent="1" vertex="1">
          <mxGeometry x="11835" y="2617.5" width="195" height="80" as="geometry" />
        </mxCell>
        <mxCell id="smL3VV54iWEzO5A8RF6h-128" style="edgeStyle=orthogonalEdgeStyle;rounded=0;orthogonalLoop=1;jettySize=auto;html=1;entryX=0.5;entryY=1;entryDx=0;entryDy=0;strokeWidth=2;endArrow=classic;startFill=0;endFill=1;" parent="1" source="smL3VV54iWEzO5A8RF6h-129" target="smL3VV54iWEzO5A8RF6h-103" edge="1">
          <mxGeometry relative="1" as="geometry">
            <Array as="points">
              <mxPoint x="12358" y="2729" />
              <mxPoint x="12506" y="2729" />
              <mxPoint x="12506" y="2479" />
              <mxPoint x="11735" y="2479" />
            </Array>
          </mxGeometry>
        </mxCell>
        <mxCell id="smL3VV54iWEzO5A8RF6h-129" value="&lt;b&gt;&lt;font style=&quot;font-size: 30px;&quot;&gt;TrackID&lt;/font&gt;&lt;/b&gt;" style="whiteSpace=wrap;html=1;strokeWidth=2;" parent="1" vertex="1">
          <mxGeometry x="12255" y="2617.5" width="205" height="80" as="geometry" />
        </mxCell>
        <mxCell id="smL3VV54iWEzO5A8RF6h-130" style="edgeStyle=orthogonalEdgeStyle;rounded=0;orthogonalLoop=1;jettySize=auto;html=1;entryX=0;entryY=0.25;entryDx=0;entryDy=0;strokeWidth=2;" parent="1" source="smL3VV54iWEzO5A8RF6h-131" target="smL3VV54iWEzO5A8RF6h-97" edge="1">
          <mxGeometry relative="1" as="geometry">
            <Array as="points">
              <mxPoint x="12142" y="2806" />
              <mxPoint x="11594" y="2806" />
              <mxPoint x="11594" y="2072" />
            </Array>
          </mxGeometry>
        </mxCell>
        <mxCell id="smL3VV54iWEzO5A8RF6h-131" value="&lt;b&gt;&lt;font style=&quot;font-size: 30px;&quot;&gt;IntakeID&lt;/font&gt;&lt;/b&gt;" style="rounded=0;whiteSpace=wrap;html=1;strokeWidth=2;" parent="1" vertex="1">
          <mxGeometry x="12030" y="2617.5" width="225" height="80" as="geometry" />
        </mxCell>
        <mxCell id="smL3VV54iWEzO5A8RF6h-132" style="edgeStyle=orthogonalEdgeStyle;rounded=0;orthogonalLoop=1;jettySize=auto;html=1;strokeWidth=2;exitX=0.524;exitY=1.011;exitDx=0;exitDy=0;exitPerimeter=0;entryX=0.528;entryY=0.994;entryDx=0;entryDy=0;entryPerimeter=0;" parent="1" source="smL3VV54iWEzO5A8RF6h-134" target="smL3VV54iWEzO5A8RF6h-106" edge="1">
          <mxGeometry relative="1" as="geometry">
            <mxPoint x="12840" y="2390" as="targetPoint" />
            <Array as="points">
              <mxPoint x="12390" y="2436" />
              <mxPoint x="12840" y="2436" />
              <mxPoint x="12840" y="2390" />
              <mxPoint x="12839" y="2390" />
            </Array>
          </mxGeometry>
        </mxCell>
        <mxCell id="smL3VV54iWEzO5A8RF6h-133" value="&lt;b&gt;&lt;font style=&quot;font-size: 30px;&quot;&gt;Description&lt;/font&gt;&lt;/b&gt;" style="rounded=0;whiteSpace=wrap;html=1;strokeWidth=2;" parent="1" vertex="1">
          <mxGeometry x="12055" y="2310.63" width="220" height="80" as="geometry" />
        </mxCell>
        <mxCell id="smL3VV54iWEzO5A8RF6h-134" value="&lt;b&gt;&lt;font style=&quot;font-size: 30px;&quot;&gt;DepartmentID&lt;/font&gt;&lt;/b&gt;" style="rounded=0;whiteSpace=wrap;html=1;strokeWidth=2;" parent="1" vertex="1">
          <mxGeometry x="12275" y="2310.63" width="220" height="80" as="geometry" />
        </mxCell>
        <mxCell id="smL3VV54iWEzO5A8RF6h-135" value="&lt;span style=&quot;font-size: 30px;&quot;&gt;&lt;b&gt;&lt;u&gt;BIT_ID&lt;/u&gt;&lt;/b&gt;&lt;/span&gt;" style="rounded=0;whiteSpace=wrap;html=1;strokeWidth=2;" parent="1" vertex="1">
          <mxGeometry x="11635" y="2618.13" width="200" height="80" as="geometry" />
        </mxCell>
        <mxCell id="smL3VV54iWEzO5A8RF6h-136" style="edgeStyle=orthogonalEdgeStyle;rounded=0;orthogonalLoop=1;jettySize=auto;html=1;entryX=0;entryY=0.5;entryDx=0;entryDy=0;strokeWidth=2;" parent="1" source="smL3VV54iWEzO5A8RF6h-137" target="smL3VV54iWEzO5A8RF6h-135" edge="1">
          <mxGeometry relative="1" as="geometry">
            <Array as="points">
              <mxPoint x="13470" y="2510" />
              <mxPoint x="11620" y="2510" />
              <mxPoint x="11620" y="2658" />
            </Array>
          </mxGeometry>
        </mxCell>
        <mxCell id="smL3VV54iWEzO5A8RF6h-137" value="&lt;b&gt;&lt;font style=&quot;font-size: 30px;&quot;&gt;BIT&lt;/font&gt;&lt;/b&gt;" style="rounded=0;whiteSpace=wrap;html=1;strokeWidth=2;" parent="1" vertex="1">
          <mxGeometry x="13370" y="1273.75" width="200" height="80" as="geometry" />
        </mxCell>
        <mxCell id="smL3VV54iWEzO5A8RF6h-138" style="edgeStyle=orthogonalEdgeStyle;rounded=0;orthogonalLoop=1;jettySize=auto;html=1;entryX=0;entryY=0.75;entryDx=0;entryDy=0;exitX=0.5;exitY=0;exitDx=0;exitDy=0;strokeWidth=2;" parent="1" source="smL3VV54iWEzO5A8RF6h-139" target="smL3VV54iWEzO5A8RF6h-135" edge="1">
          <mxGeometry relative="1" as="geometry">
            <Array as="points">
              <mxPoint x="12820" y="940" />
              <mxPoint x="11500" y="940" />
              <mxPoint x="11500" y="2678" />
            </Array>
          </mxGeometry>
        </mxCell>
        <mxCell id="smL3VV54iWEzO5A8RF6h-139" value="&lt;b&gt;&lt;font style=&quot;font-size: 30px;&quot;&gt;BIT_ID&lt;/font&gt;&lt;/b&gt;" style="rounded=0;whiteSpace=wrap;html=1;strokeWidth=2;" parent="1" vertex="1">
          <mxGeometry x="12720" y="1021.25" width="200" height="80" as="geometry" />
        </mxCell>
        <mxCell id="smL3VV54iWEzO5A8RF6h-140" value="&lt;b&gt;&lt;font style=&quot;font-size: 30px;&quot;&gt;StudGrade&lt;/font&gt;&lt;/b&gt;" style="rounded=0;whiteSpace=wrap;html=1;strokeWidth=2;" parent="1" vertex="1">
          <mxGeometry x="14150" y="1000" width="240" height="80" as="geometry" />
        </mxCell>
        <mxCell id="smL3VV54iWEzO5A8RF6h-144" style="edgeStyle=orthogonalEdgeStyle;rounded=0;orthogonalLoop=1;jettySize=auto;html=1;entryX=0;entryY=0.75;entryDx=0;entryDy=0;strokeWidth=2;exitX=0.5;exitY=0;exitDx=0;exitDy=0;" parent="1" source="smL3VV54iWEzO5A8RF6h-145" target="smL3VV54iWEzO5A8RF6h-47" edge="1">
          <mxGeometry relative="1" as="geometry">
            <Array as="points">
              <mxPoint x="12930" y="1450" />
              <mxPoint x="11580" y="1450" />
              <mxPoint x="11580" y="1080" />
            </Array>
          </mxGeometry>
        </mxCell>
        <mxCell id="smL3VV54iWEzO5A8RF6h-145" value="&lt;span style=&quot;font-size: 30px;&quot;&gt;&lt;b&gt;InstructorID&lt;/b&gt;&lt;/span&gt;" style="rounded=0;whiteSpace=wrap;html=1;strokeWidth=2;" parent="1" vertex="1">
          <mxGeometry x="12830" y="1573.75" width="200" height="80" as="geometry" />
        </mxCell>
        <mxCell id="smL3VV54iWEzO5A8RF6h-146" style="edgeStyle=orthogonalEdgeStyle;rounded=0;orthogonalLoop=1;jettySize=auto;html=1;entryX=0.75;entryY=1;entryDx=0;entryDy=0;strokeWidth=2;" parent="1" source="smL3VV54iWEzO5A8RF6h-147" target="smL3VV54iWEzO5A8RF6h-106" edge="1">
          <mxGeometry relative="1" as="geometry">
            <Array as="points">
              <mxPoint x="12613" y="1228" />
              <mxPoint x="13894" y="1228" />
              <mxPoint x="13894" y="2430" />
              <mxPoint x="12889" y="2430" />
            </Array>
          </mxGeometry>
        </mxCell>
        <mxCell id="smL3VV54iWEzO5A8RF6h-147" value="&lt;b&gt;&lt;font style=&quot;font-size: 30px;&quot;&gt;DepartmentID&lt;/font&gt;&lt;/b&gt;" style="rounded=0;whiteSpace=wrap;html=1;strokeWidth=2;" parent="1" vertex="1">
          <mxGeometry x="12500" y="1020" width="225" height="80.5" as="geometry" />
        </mxCell>
        <mxCell id="smL3VV54iWEzO5A8RF6h-148" value="&lt;b&gt;&lt;font style=&quot;font-size: 27px;&quot;&gt;Exam&lt;/font&gt;&lt;/b&gt;" style="rounded=0;whiteSpace=wrap;html=1;fillColor=#a20025;strokeColor=#6F0000;fillStyle=auto;strokeWidth=2;fontColor=#ffffff;" parent="1" vertex="1">
          <mxGeometry x="11630.29" y="3140" width="200" height="60" as="geometry" />
        </mxCell>
        <mxCell id="smL3VV54iWEzO5A8RF6h-149" value="&lt;b&gt;&lt;font style=&quot;font-size: 30px;&quot;&gt;&lt;u style=&quot;&quot;&gt;ExamID&lt;/u&gt;&lt;/font&gt;&lt;/b&gt;" style="rounded=0;whiteSpace=wrap;html=1;strokeWidth=2;" parent="1" vertex="1">
          <mxGeometry x="11630.29" y="3200" width="200" height="80" as="geometry" />
        </mxCell>
        <mxCell id="smL3VV54iWEzO5A8RF6h-150" value="&lt;b&gt;&lt;font style=&quot;font-size: 30px;&quot;&gt;No_Of_MCQ&lt;/font&gt;&lt;/b&gt;" style="rounded=0;whiteSpace=wrap;html=1;strokeWidth=2;" parent="1" vertex="1">
          <mxGeometry x="12230.29" y="3200" width="240" height="80" as="geometry" />
        </mxCell>
        <mxCell id="smL3VV54iWEzO5A8RF6h-151" value="&lt;b&gt;&lt;font style=&quot;font-size: 30px;&quot;&gt;Duration&lt;/font&gt;&lt;/b&gt;" style="whiteSpace=wrap;html=1;strokeWidth=2;" parent="1" vertex="1">
          <mxGeometry x="12050.29" y="3200" width="180" height="80" as="geometry" />
        </mxCell>
        <mxCell id="smL3VV54iWEzO5A8RF6h-152" value="&lt;b&gt;&lt;font style=&quot;font-size: 30px;&quot;&gt;ExamType&lt;/font&gt;&lt;/b&gt;" style="rounded=0;whiteSpace=wrap;html=1;strokeWidth=2;" parent="1" vertex="1">
          <mxGeometry x="11830.29" y="3200" width="220" height="80" as="geometry" />
        </mxCell>
        <mxCell id="smL3VV54iWEzO5A8RF6h-153" value="&lt;b&gt;&lt;font style=&quot;font-size: 30px;&quot;&gt;StartTime&lt;/font&gt;&lt;/b&gt;" style="rounded=0;whiteSpace=wrap;html=1;strokeWidth=2;" parent="1" vertex="1">
          <mxGeometry x="12880.29" y="3200" width="215" height="80" as="geometry" />
        </mxCell>
        <mxCell id="smL3VV54iWEzO5A8RF6h-154" value="&lt;b&gt;&lt;font style=&quot;font-size: 30px;&quot;&gt;No_Of_TextQ&lt;/font&gt;&lt;/b&gt;" style="rounded=0;whiteSpace=wrap;html=1;strokeWidth=2;" parent="1" vertex="1">
          <mxGeometry x="12470.29" y="3200" width="215" height="80" as="geometry" />
        </mxCell>
        <mxCell id="smL3VV54iWEzO5A8RF6h-155" value="&lt;b&gt;&lt;font style=&quot;font-size: 30px;&quot;&gt;No_Of_TFQ&lt;/font&gt;&lt;/b&gt;" style="rounded=0;whiteSpace=wrap;html=1;strokeWidth=2;" parent="1" vertex="1">
          <mxGeometry x="12685.29" y="3200" width="195" height="80" as="geometry" />
        </mxCell>
        <mxCell id="smL3VV54iWEzO5A8RF6h-156" value="&lt;b&gt;&lt;font style=&quot;font-size: 30px;&quot;&gt;EndTime&lt;/font&gt;&lt;/b&gt;" style="rounded=0;whiteSpace=wrap;html=1;strokeWidth=2;" parent="1" vertex="1">
          <mxGeometry x="13095.29" y="3200" width="215" height="80" as="geometry" />
        </mxCell>
        <mxCell id="smL3VV54iWEzO5A8RF6h-157" value="&lt;b&gt;&lt;font style=&quot;font-size: 30px;&quot;&gt;ExamGrade&lt;/font&gt;&lt;/b&gt;" style="rounded=0;whiteSpace=wrap;html=1;strokeWidth=2;" parent="1" vertex="1">
          <mxGeometry x="13310.29" y="3200" width="215" height="80" as="geometry" />
        </mxCell>
        <mxCell id="smL3VV54iWEzO5A8RF6h-158" value="&lt;b&gt;&lt;font style=&quot;font-size: 30px;&quot;&gt;AllowneceOptions&lt;/font&gt;&lt;/b&gt;" style="rounded=0;whiteSpace=wrap;html=1;strokeWidth=2;" parent="1" vertex="1">
          <mxGeometry x="13525.29" y="3200" width="280" height="80" as="geometry" />
        </mxCell>
        <mxCell id="smL3VV54iWEzO5A8RF6h-164" value="&lt;b&gt;&lt;font style=&quot;font-size: 27px;&quot;&gt;Question&lt;/font&gt;&lt;/b&gt;" style="rounded=0;whiteSpace=wrap;html=1;fillColor=#a20025;strokeColor=#6F0000;fillStyle=auto;strokeWidth=2;fontColor=#ffffff;" parent="1" vertex="1">
          <mxGeometry x="11634.66" y="3373.16" width="200" height="60" as="geometry" />
        </mxCell>
        <mxCell id="smL3VV54iWEzO5A8RF6h-165" value="&lt;b&gt;&lt;font style=&quot;font-size: 27px;&quot;&gt;&lt;u&gt;QuestionID&lt;/u&gt;&lt;/font&gt;&lt;/b&gt;" style="rounded=0;whiteSpace=wrap;html=1;strokeWidth=2;" parent="1" vertex="1">
          <mxGeometry x="11634.66" y="3433.16" width="200" height="80" as="geometry" />
        </mxCell>
        <mxCell id="smL3VV54iWEzO5A8RF6h-167" value="&lt;b&gt;&lt;font style=&quot;font-size: 30px;&quot;&gt;QuestionText&lt;/font&gt;&lt;/b&gt;" style="whiteSpace=wrap;html=1;strokeWidth=2;" parent="1" vertex="1">
          <mxGeometry x="12054.66" y="3433.16" width="220" height="80" as="geometry" />
        </mxCell>
        <mxCell id="smL3VV54iWEzO5A8RF6h-168" value="&lt;b&gt;&lt;font style=&quot;font-size: 30px;&quot;&gt;QuestionType&lt;/font&gt;&lt;/b&gt;" style="rounded=0;whiteSpace=wrap;html=1;strokeWidth=2;" parent="1" vertex="1">
          <mxGeometry x="11834.66" y="3433.16" width="220" height="80" as="geometry" />
        </mxCell>
        <mxCell id="smL3VV54iWEzO5A8RF6h-169" value="&lt;b&gt;&lt;font style=&quot;font-size: 30px;&quot;&gt;DifficultyLevel&lt;/font&gt;&lt;/b&gt;" style="rounded=0;whiteSpace=wrap;html=1;strokeWidth=2;" parent="1" vertex="1">
          <mxGeometry x="12275" y="3433" width="227.5" height="80" as="geometry" />
        </mxCell>
        <mxCell id="smL3VV54iWEzO5A8RF6h-171" value="&lt;b&gt;&lt;font style=&quot;font-size: 30px;&quot;&gt;QuestionMark&lt;/font&gt;&lt;/b&gt;" style="rounded=0;whiteSpace=wrap;html=1;strokeWidth=2;" parent="1" vertex="1">
          <mxGeometry x="12503" y="3433" width="215" height="80" as="geometry" />
        </mxCell>
        <mxCell id="smL3VV54iWEzO5A8RF6h-173" value="&lt;b&gt;&lt;font style=&quot;font-size: 27px;&quot;&gt;Choices&lt;/font&gt;&lt;/b&gt;" style="rounded=0;whiteSpace=wrap;html=1;fillColor=#a20025;strokeColor=#6F0000;fillStyle=auto;strokeWidth=2;fontColor=#ffffff;" parent="1" vertex="1">
          <mxGeometry x="11640" y="3628.16" width="200" height="60" as="geometry" />
        </mxCell>
        <mxCell id="smL3VV54iWEzO5A8RF6h-174" value="&lt;span style=&quot;font-size: 27px;&quot;&gt;&lt;b&gt;&lt;u&gt;ChoiceID&lt;/u&gt;&lt;/b&gt;&lt;/span&gt;" style="rounded=0;whiteSpace=wrap;html=1;strokeWidth=2;" parent="1" vertex="1">
          <mxGeometry x="11640" y="3688.16" width="200" height="80" as="geometry" />
        </mxCell>
        <mxCell id="smL3VV54iWEzO5A8RF6h-175" style="edgeStyle=orthogonalEdgeStyle;rounded=0;orthogonalLoop=1;jettySize=auto;html=1;strokeWidth=2;entryX=0.387;entryY=0.964;entryDx=0;entryDy=0;exitX=0.5;exitY=0;exitDx=0;exitDy=0;entryPerimeter=0;" parent="1" source="smL3VV54iWEzO5A8RF6h-176" target="smL3VV54iWEzO5A8RF6h-165" edge="1">
          <mxGeometry relative="1" as="geometry">
            <mxPoint x="11620" y="3460" as="targetPoint" />
            <Array as="points">
              <mxPoint x="11950" y="3608" />
              <mxPoint x="11712" y="3608" />
            </Array>
          </mxGeometry>
        </mxCell>
        <mxCell id="smL3VV54iWEzO5A8RF6h-176" value="&lt;b&gt;&lt;font style=&quot;font-size: 27px;&quot;&gt;QuestionID&lt;/font&gt;&lt;/b&gt;" style="rounded=0;whiteSpace=wrap;html=1;strokeWidth=2;" parent="1" vertex="1">
          <mxGeometry x="11840" y="3688.16" width="220" height="80" as="geometry" />
        </mxCell>
        <mxCell id="smL3VV54iWEzO5A8RF6h-185" value="&lt;b&gt;&lt;font style=&quot;font-size: 27px;&quot;&gt;ExamQuestion&lt;/font&gt;&lt;/b&gt;" style="rounded=0;whiteSpace=wrap;html=1;fillColor=#a20025;strokeColor=#6F0000;fillStyle=auto;strokeWidth=2;fontColor=#ffffff;" parent="1" vertex="1">
          <mxGeometry x="11635" y="2884.75" width="200" height="60" as="geometry" />
        </mxCell>
        <mxCell id="smL3VV54iWEzO5A8RF6h-186" style="edgeStyle=orthogonalEdgeStyle;rounded=0;orthogonalLoop=1;jettySize=auto;html=1;entryX=-0.005;entryY=0.152;entryDx=0;entryDy=0;strokeWidth=2;entryPerimeter=0;" parent="1" source="smL3VV54iWEzO5A8RF6h-187" target="smL3VV54iWEzO5A8RF6h-149" edge="1">
          <mxGeometry relative="1" as="geometry">
            <Array as="points">
              <mxPoint x="11735" y="3080" />
              <mxPoint x="11540" y="3080" />
              <mxPoint x="11540" y="3212" />
            </Array>
          </mxGeometry>
        </mxCell>
        <mxCell id="smL3VV54iWEzO5A8RF6h-187" value="&lt;b&gt;&lt;font style=&quot;font-size: 30px;&quot;&gt;&lt;u style=&quot;&quot;&gt;ExamID&lt;/u&gt;&lt;/font&gt;&lt;/b&gt;" style="rounded=0;whiteSpace=wrap;html=1;strokeWidth=2;" parent="1" vertex="1">
          <mxGeometry x="11635" y="2934.75" width="200" height="80" as="geometry" />
        </mxCell>
        <mxCell id="smL3VV54iWEzO5A8RF6h-188" style="edgeStyle=orthogonalEdgeStyle;rounded=0;orthogonalLoop=1;jettySize=auto;html=1;entryX=0;entryY=0.5;entryDx=0;entryDy=0;strokeWidth=2;" parent="1" target="smL3VV54iWEzO5A8RF6h-165" edge="1">
          <mxGeometry relative="1" as="geometry">
            <mxPoint x="11935.058823529413" y="2950" as="sourcePoint" />
            <mxPoint x="11605" y="3707.62" as="targetPoint" />
            <Array as="points">
              <mxPoint x="11935" y="3058" />
              <mxPoint x="11510" y="3058" />
              <mxPoint x="11510" y="3473" />
            </Array>
          </mxGeometry>
        </mxCell>
        <mxCell id="smL3VV54iWEzO5A8RF6h-189" value="&lt;b&gt;&lt;font style=&quot;font-size: 27px;&quot;&gt;&lt;u&gt;QuestionID&lt;/u&gt;&lt;/font&gt;&lt;/b&gt;" style="rounded=0;whiteSpace=wrap;html=1;strokeWidth=2;" parent="1" vertex="1">
          <mxGeometry x="11835" y="2936.9500000000003" width="200" height="75.43" as="geometry" />
        </mxCell>
        <mxCell id="smL3VV54iWEzO5A8RF6h-191" style="edgeStyle=orthogonalEdgeStyle;rounded=0;orthogonalLoop=1;jettySize=auto;html=1;entryX=0.5;entryY=1;entryDx=0;entryDy=0;strokeWidth=2;" parent="1" source="smL3VV54iWEzO5A8RF6h-192" target="smL3VV54iWEzO5A8RF6h-65" edge="1">
          <mxGeometry relative="1" as="geometry">
            <Array as="points">
              <mxPoint x="12818" y="3559" />
              <mxPoint x="14460" y="3559" />
              <mxPoint x="14460" y="1710" />
              <mxPoint x="11740" y="1710" />
            </Array>
          </mxGeometry>
        </mxCell>
        <mxCell id="smL3VV54iWEzO5A8RF6h-192" value="&lt;b&gt;&lt;font style=&quot;font-size: 30px;&quot;&gt;CourseID&lt;/font&gt;&lt;/b&gt;" style="rounded=0;whiteSpace=wrap;html=1;strokeWidth=2;" parent="1" vertex="1">
          <mxGeometry x="12718" y="3433" width="200" height="80" as="geometry" />
        </mxCell>
        <mxCell id="smL3VV54iWEzO5A8RF6h-193" value="&lt;span style=&quot;font-size: 27px;&quot;&gt;&lt;b&gt;StudentExamQuestion&lt;/b&gt;&lt;/span&gt;" style="rounded=0;whiteSpace=wrap;html=1;fillColor=#a20025;strokeColor=#6F0000;fillStyle=auto;strokeWidth=2;fontColor=#ffffff;" parent="1" vertex="1">
          <mxGeometry x="11640" y="3818.75" width="395" height="66.25" as="geometry" />
        </mxCell>
        <mxCell id="smL3VV54iWEzO5A8RF6h-194" style="edgeStyle=orthogonalEdgeStyle;rounded=0;orthogonalLoop=1;jettySize=auto;html=1;entryX=0;entryY=0.5;entryDx=0;entryDy=0;strokeWidth=2;" parent="1" source="smL3VV54iWEzO5A8RF6h-195" target="smL3VV54iWEzO5A8RF6h-53" edge="1">
          <mxGeometry relative="1" as="geometry">
            <Array as="points">
              <mxPoint x="11938" y="4020" />
              <mxPoint x="11355" y="4020" />
              <mxPoint x="11355" y="1314" />
            </Array>
          </mxGeometry>
        </mxCell>
        <mxCell id="smL3VV54iWEzO5A8RF6h-195" value="&lt;b&gt;&lt;font style=&quot;font-size: 30px;&quot;&gt;StudentID&lt;/font&gt;&lt;/b&gt;" style="rounded=0;whiteSpace=wrap;html=1;strokeWidth=2;" parent="1" vertex="1">
          <mxGeometry x="11840" y="3884.37" width="195" height="80" as="geometry" />
        </mxCell>
        <mxCell id="smL3VV54iWEzO5A8RF6h-196" style="edgeStyle=orthogonalEdgeStyle;rounded=0;orthogonalLoop=1;jettySize=auto;html=1;entryX=0.5;entryY=1;entryDx=0;entryDy=0;strokeWidth=2;" parent="1" source="smL3VV54iWEzO5A8RF6h-197" target="smL3VV54iWEzO5A8RF6h-165" edge="1">
          <mxGeometry relative="1" as="geometry">
            <Array as="points">
              <mxPoint x="12363" y="3820" />
              <mxPoint x="12718" y="3820" />
              <mxPoint x="12718" y="3594" />
              <mxPoint x="11735" y="3594" />
            </Array>
          </mxGeometry>
        </mxCell>
        <mxCell id="smL3VV54iWEzO5A8RF6h-197" value="&lt;b&gt;&lt;font style=&quot;font-size: 30px;&quot;&gt;QuestionID&lt;/font&gt;&lt;/b&gt;" style="whiteSpace=wrap;html=1;strokeWidth=2;" parent="1" vertex="1">
          <mxGeometry x="12260" y="3884.37" width="205" height="80" as="geometry" />
        </mxCell>
        <mxCell id="smL3VV54iWEzO5A8RF6h-198" style="edgeStyle=orthogonalEdgeStyle;rounded=0;orthogonalLoop=1;jettySize=auto;html=1;entryX=0;entryY=0.75;entryDx=0;entryDy=0;strokeWidth=2;" parent="1" edge="1">
          <mxGeometry relative="1" as="geometry">
            <Array as="points">
              <mxPoint x="12148" y="4060" />
              <mxPoint x="11420" y="4060" />
              <mxPoint x="11420" y="3259" />
            </Array>
            <mxPoint x="12147.57142857143" y="3883.369999999999" as="sourcePoint" />
            <mxPoint x="11630.29" y="3259" as="targetPoint" />
          </mxGeometry>
        </mxCell>
        <mxCell id="smL3VV54iWEzO5A8RF6h-199" value="&lt;b&gt;&lt;font style=&quot;font-size: 30px;&quot;&gt;ExamID&lt;/font&gt;&lt;/b&gt;" style="rounded=0;whiteSpace=wrap;html=1;strokeWidth=2;" parent="1" vertex="1">
          <mxGeometry x="12035" y="3884.37" width="225" height="80" as="geometry" />
        </mxCell>
        <mxCell id="smL3VV54iWEzO5A8RF6h-200" value="&lt;b&gt;&lt;font style=&quot;font-size: 30px;&quot;&gt;&lt;u&gt;SEQ&lt;/u&gt;&lt;/font&gt;&lt;/b&gt;" style="rounded=0;whiteSpace=wrap;html=1;strokeWidth=2;" parent="1" vertex="1">
          <mxGeometry x="11640" y="3885" width="200" height="80" as="geometry" />
        </mxCell>
        <mxCell id="smL3VV54iWEzO5A8RF6h-201" style="edgeStyle=orthogonalEdgeStyle;rounded=0;orthogonalLoop=1;jettySize=auto;html=1;entryX=0;entryY=0.5;entryDx=0;entryDy=0;strokeWidth=2;" parent="1" source="smL3VV54iWEzO5A8RF6h-202" target="smL3VV54iWEzO5A8RF6h-47" edge="1">
          <mxGeometry relative="1" as="geometry">
            <Array as="points">
              <mxPoint x="13905" y="3110" />
              <mxPoint x="11390" y="3110" />
              <mxPoint x="11390" y="1060" />
            </Array>
          </mxGeometry>
        </mxCell>
        <mxCell id="smL3VV54iWEzO5A8RF6h-202" value="&lt;span style=&quot;font-size: 30px;&quot;&gt;&lt;b&gt;InstructorID&lt;/b&gt;&lt;/span&gt;" style="rounded=0;whiteSpace=wrap;html=1;strokeWidth=2;" parent="1" vertex="1">
          <mxGeometry x="13805.29" y="3200" width="200" height="80" as="geometry" />
        </mxCell>
        <mxCell id="smL3VV54iWEzO5A8RF6h-206" value="&lt;b&gt;&lt;font style=&quot;font-size: 30px;&quot;&gt;CourseID&lt;/font&gt;&lt;/b&gt;" style="rounded=0;whiteSpace=wrap;html=1;strokeWidth=2;" parent="1" vertex="1">
          <mxGeometry x="14000.34" y="3200" width="200" height="80" as="geometry" />
        </mxCell>
        <mxCell id="smL3VV54iWEzO5A8RF6h-207" style="edgeStyle=orthogonalEdgeStyle;rounded=0;orthogonalLoop=1;jettySize=auto;html=1;entryX=0.35;entryY=0.978;entryDx=0;entryDy=0;entryPerimeter=0;strokeWidth=2;" parent="1" source="smL3VV54iWEzO5A8RF6h-206" target="smL3VV54iWEzO5A8RF6h-65" edge="1">
          <mxGeometry relative="1" as="geometry">
            <Array as="points">
              <mxPoint x="14080" y="1730" />
              <mxPoint x="11710" y="1730" />
            </Array>
          </mxGeometry>
        </mxCell>
        <mxCell id="smL3VV54iWEzO5A8RF6h-211" value="&lt;b style=&quot;font-family: monospace;&quot;&gt;&lt;font style=&quot;color: rgb(0, 0, 0); font-size: 30px;&quot; face=&quot;Helvetica&quot;&gt;StudentQAnswer&lt;/font&gt;&lt;/b&gt;" style="whiteSpace=wrap;html=1;strokeWidth=2;" parent="1" vertex="1">
          <mxGeometry x="12465" y="3885" width="261" height="80" as="geometry" />
        </mxCell>
        <mxCell id="smL3VV54iWEzO5A8RF6h-212" value="&lt;b style=&quot;font-family: monospace;&quot;&gt;&lt;font style=&quot;font-size: 29px; color: rgb(0, 0, 0); background-color: rgb(255, 255, 255);&quot; face=&quot;Helvetica&quot;&gt;CourseStatus&lt;/font&gt;&lt;/b&gt;" style="rounded=0;whiteSpace=wrap;html=1;strokeWidth=2;" parent="1" vertex="1">
          <mxGeometry x="12630" y="1573.75" width="200" height="80" as="geometry" />
        </mxCell>
        <mxCell id="ULI18vokIdT51KFedwxw-34" value="&lt;b&gt;&lt;font style=&quot;font-size: 30px;&quot;&gt;ManagerID&lt;/font&gt;&lt;/b&gt;" style="rounded=0;whiteSpace=wrap;html=1;strokeWidth=2;" parent="1" vertex="1">
          <mxGeometry x="12730" y="1809.88" width="200" height="80" as="geometry" />
        </mxCell>
        <mxCell id="ULI18vokIdT51KFedwxw-36" value="&lt;b&gt;&lt;font style=&quot;font-size: 27px;&quot;&gt;Branch&lt;/font&gt;&lt;/b&gt;" style="rounded=0;whiteSpace=wrap;html=1;fillColor=#a20025;strokeColor=#6F0000;fillStyle=auto;strokeWidth=2;fontColor=#ffffff;" parent="1" vertex="1">
          <mxGeometry x="11638" y="1743.38" width="200" height="66.25" as="geometry" />
        </mxCell>
        <mxCell id="ULI18vokIdT51KFedwxw-41" value="&lt;span style=&quot;font-size: 30px;&quot;&gt;&lt;b&gt;Person ID&lt;/b&gt;&lt;/span&gt;" style="rounded=0;whiteSpace=wrap;html=1;strokeWidth=2;" parent="1" vertex="1">
          <mxGeometry x="12513" y="745.69" width="200" height="80" as="geometry" />
        </mxCell>
        <mxCell id="ULI18vokIdT51KFedwxw-45" value="&lt;b&gt;&lt;font style=&quot;font-size: 30px;&quot;&gt;PersonID&lt;/font&gt;&lt;/b&gt;" style="rounded=0;whiteSpace=wrap;html=1;strokeWidth=2;" parent="1" vertex="1">
          <mxGeometry x="13570" y="1273.75" width="200" height="80" as="geometry" />
        </mxCell>
        <mxCell id="ULI18vokIdT51KFedwxw-47" value="&lt;b&gt;&lt;font style=&quot;font-size: 30px;&quot;&gt;PersonID&lt;/font&gt;&lt;/b&gt;" style="rounded=0;whiteSpace=wrap;html=1;strokeWidth=2;" parent="1" vertex="1">
          <mxGeometry x="12920" y="1021.25" width="200" height="80" as="geometry" />
        </mxCell>
        <mxCell id="ULI18vokIdT51KFedwxw-50" style="edgeStyle=orthogonalEdgeStyle;rounded=0;orthogonalLoop=1;jettySize=auto;html=1;strokeWidth=2;" parent="1" source="ULI18vokIdT51KFedwxw-49" edge="1">
          <mxGeometry relative="1" as="geometry">
            <mxPoint x="11633" y="2331" as="targetPoint" />
            <Array as="points">
              <mxPoint x="13135" y="1697" />
              <mxPoint x="11576" y="1697" />
              <mxPoint x="11576" y="2331" />
            </Array>
          </mxGeometry>
        </mxCell>
        <mxCell id="ULI18vokIdT51KFedwxw-49" value="&lt;b&gt;&lt;font style=&quot;font-size: 30px;&quot;&gt;TrackID&lt;/font&gt;&lt;/b&gt;" style="rounded=0;whiteSpace=wrap;html=1;strokeWidth=2;" parent="1" vertex="1">
          <mxGeometry x="13030" y="1573.75" width="200" height="79.26" as="geometry" />
        </mxCell>
        <mxCell id="ULI18vokIdT51KFedwxw-52" style="edgeStyle=orthogonalEdgeStyle;rounded=0;orthogonalLoop=1;jettySize=auto;html=1;entryX=0.5;entryY=1;entryDx=0;entryDy=0;strokeWidth=2;" parent="1" source="ULI18vokIdT51KFedwxw-51" target="smL3VV54iWEzO5A8RF6h-135" edge="1">
          <mxGeometry relative="1" as="geometry">
            <Array as="points">
              <mxPoint x="14300" y="2852" />
              <mxPoint x="11735" y="2852" />
            </Array>
          </mxGeometry>
        </mxCell>
        <mxCell id="ULI18vokIdT51KFedwxw-51" value="&lt;b&gt;&lt;font style=&quot;font-size: 30px;&quot;&gt;BIT_ID&lt;/font&gt;&lt;/b&gt;" style="rounded=0;whiteSpace=wrap;html=1;strokeWidth=2;" parent="1" vertex="1">
          <mxGeometry x="14200.34" y="3200" width="200" height="80" as="geometry" />
        </mxCell>
        <mxCell id="ULI18vokIdT51KFedwxw-54" value="&lt;b&gt;&lt;font style=&quot;font-size: 27px;&quot;&gt;ChoiceText&lt;/font&gt;&lt;/b&gt;" style="rounded=0;whiteSpace=wrap;html=1;strokeWidth=2;" parent="1" vertex="1">
          <mxGeometry x="12060" y="3688.16" width="220" height="80" as="geometry" />
        </mxCell>
        <mxCell id="ULI18vokIdT51KFedwxw-55" value="&lt;b&gt;&lt;font style=&quot;font-size: 27px;&quot;&gt;IsCorrect&lt;/font&gt;&lt;/b&gt;" style="rounded=0;whiteSpace=wrap;html=1;strokeWidth=2;" parent="1" vertex="1">
          <mxGeometry x="12280" y="3688.16" width="164" height="80" as="geometry" />
        </mxCell>
        <mxCell id="ULI18vokIdT51KFedwxw-57" value="&lt;b&gt;&lt;font style=&quot;font-size: 27px;&quot;&gt;TextQuestion&lt;/font&gt;&lt;/b&gt;" style="rounded=0;whiteSpace=wrap;html=1;fillColor=#a20025;strokeColor=#6F0000;fillStyle=auto;strokeWidth=2;fontColor=#ffffff;" parent="1" vertex="1">
          <mxGeometry x="11611" y="4111" width="198" height="60" as="geometry" />
        </mxCell>
        <mxCell id="ULI18vokIdT51KFedwxw-61" style="edgeStyle=orthogonalEdgeStyle;rounded=0;orthogonalLoop=1;jettySize=auto;html=1;entryX=0.25;entryY=1;entryDx=0;entryDy=0;strokeWidth=2;" parent="1" source="ULI18vokIdT51KFedwxw-59" target="smL3VV54iWEzO5A8RF6h-165" edge="1">
          <mxGeometry relative="1" as="geometry">
            <mxPoint x="11609.666666666668" y="3460.333333333334" as="targetPoint" />
            <Array as="points">
              <mxPoint x="11711" y="4276" />
              <mxPoint x="11510" y="4276" />
              <mxPoint x="11510" y="3593" />
              <mxPoint x="11685" y="3593" />
            </Array>
          </mxGeometry>
        </mxCell>
        <mxCell id="ULI18vokIdT51KFedwxw-59" value="&lt;b&gt;&lt;font style=&quot;font-size: 27px;&quot;&gt;&lt;u&gt;QuestionID&lt;/u&gt;&lt;/font&gt;&lt;/b&gt;" style="rounded=0;whiteSpace=wrap;html=1;strokeWidth=2;" parent="1" vertex="1">
          <mxGeometry x="11611" y="4171" width="200" height="81.63" as="geometry" />
        </mxCell>
        <mxCell id="ULI18vokIdT51KFedwxw-60" value="&lt;b style=&quot;font-family: monospace;&quot;&gt;&lt;font style=&quot;color: rgb(0, 0, 0); font-size: 30px;&quot; face=&quot;Helvetica&quot;&gt;BestTextAnswer&lt;/font&gt;&lt;/b&gt;" style="whiteSpace=wrap;html=1;strokeWidth=2;" parent="1" vertex="1">
          <mxGeometry x="11809.5" y="4173.31" width="261" height="80.69" as="geometry" />
        </mxCell>
        <mxCell id="ULI18vokIdT51KFedwxw-63" value="&lt;b&gt;&lt;font style=&quot;font-size: 27px;&quot;&gt;StudentExam&lt;/font&gt;&lt;/b&gt;" style="rounded=0;whiteSpace=wrap;html=1;fillColor=#a20025;strokeColor=#6F0000;fillStyle=auto;strokeWidth=2;fontColor=#ffffff;" parent="1" vertex="1">
          <mxGeometry x="11611" y="4342" width="264" height="60" as="geometry" />
        </mxCell>
        <mxCell id="ULI18vokIdT51KFedwxw-76" style="edgeStyle=orthogonalEdgeStyle;rounded=0;orthogonalLoop=1;jettySize=auto;html=1;strokeWidth=2;" parent="1" source="ULI18vokIdT51KFedwxw-64" edge="1">
          <mxGeometry relative="1" as="geometry">
            <mxPoint x="11629" y="3226.142857142857" as="targetPoint" />
            <Array as="points">
              <mxPoint x="11990" y="4514" />
              <mxPoint x="11215" y="4514" />
              <mxPoint x="11215" y="3226" />
            </Array>
          </mxGeometry>
        </mxCell>
        <mxCell id="ULI18vokIdT51KFedwxw-64" value="&lt;b&gt;&lt;font style=&quot;font-size: 30px;&quot;&gt;ExamID&lt;/font&gt;&lt;/b&gt;" style="rounded=0;whiteSpace=wrap;html=1;strokeWidth=2;" parent="1" vertex="1">
          <mxGeometry x="11870" y="4402" width="200" height="79" as="geometry" />
        </mxCell>
        <mxCell id="ULI18vokIdT51KFedwxw-67" value="&lt;b&gt;&lt;font style=&quot;font-size: 30px;&quot;&gt;ExamDate&lt;/font&gt;&lt;/b&gt;" style="rounded=0;whiteSpace=wrap;html=1;strokeWidth=2;" parent="1" vertex="1">
          <mxGeometry x="12270" y="4402" width="220" height="79" as="geometry" />
        </mxCell>
        <mxCell id="ULI18vokIdT51KFedwxw-68" value="&lt;b&gt;&lt;font style=&quot;font-size: 30px;&quot;&gt;StartTime&lt;/font&gt;&lt;/b&gt;" style="rounded=0;whiteSpace=wrap;html=1;strokeWidth=2;" parent="1" vertex="1">
          <mxGeometry x="12490" y="4402" width="215" height="79" as="geometry" />
        </mxCell>
        <mxCell id="ULI18vokIdT51KFedwxw-71" value="&lt;b&gt;&lt;font style=&quot;font-size: 30px;&quot;&gt;EndTime&lt;/font&gt;&lt;/b&gt;" style="rounded=0;whiteSpace=wrap;html=1;strokeWidth=2;" parent="1" vertex="1">
          <mxGeometry x="12705" y="4402" width="215" height="79" as="geometry" />
        </mxCell>
        <mxCell id="ULI18vokIdT51KFedwxw-72" value="&lt;b&gt;&lt;font style=&quot;font-size: 30px;&quot;&gt;StudentGrade&lt;/font&gt;&lt;/b&gt;" style="rounded=0;whiteSpace=wrap;html=1;strokeWidth=2;" parent="1" vertex="1">
          <mxGeometry x="12920" y="4402" width="215" height="79" as="geometry" />
        </mxCell>
        <mxCell id="ULI18vokIdT51KFedwxw-73" value="&lt;span style=&quot;font-size: 30px;&quot;&gt;&lt;b&gt;&lt;u&gt;StudentExamID&lt;/u&gt;&lt;/b&gt;&lt;/span&gt;" style="rounded=0;whiteSpace=wrap;html=1;strokeWidth=2;" parent="1" vertex="1">
          <mxGeometry x="11611" y="4402" width="263.66" height="79" as="geometry" />
        </mxCell>
        <mxCell id="ULI18vokIdT51KFedwxw-78" style="edgeStyle=orthogonalEdgeStyle;rounded=0;orthogonalLoop=1;jettySize=auto;html=1;strokeWidth=2;entryX=0;entryY=0.25;entryDx=0;entryDy=0;" parent="1" source="ULI18vokIdT51KFedwxw-77" target="smL3VV54iWEzO5A8RF6h-53" edge="1">
          <mxGeometry relative="1" as="geometry">
            <Array as="points">
              <mxPoint x="12170" y="4562" />
              <mxPoint x="11143" y="4562" />
              <mxPoint x="11143" y="1294" />
            </Array>
          </mxGeometry>
        </mxCell>
        <mxCell id="ULI18vokIdT51KFedwxw-77" value="&lt;span style=&quot;font-size: 30px;&quot;&gt;&lt;b&gt;StudentID&lt;/b&gt;&lt;/span&gt;" style="rounded=0;whiteSpace=wrap;html=1;strokeWidth=2;" parent="1" vertex="1">
          <mxGeometry x="12070.289999999999" y="4402" width="200" height="80" as="geometry" />
        </mxCell>
        <mxCell id="zIbtgdpSCptLn_aJRIT2-2" value="&lt;span style=&quot;font-size: 30px;&quot;&gt;&lt;b&gt;StudentQGrade&lt;/b&gt;&lt;/span&gt;" style="whiteSpace=wrap;html=1;strokeWidth=2;" parent="1" vertex="1">
          <mxGeometry x="12726" y="3885" width="261" height="80" as="geometry" />
        </mxCell>
        <mxCell id="zIbtgdpSCptLn_aJRIT2-3" value="&lt;span style=&quot;font-size: 30px;&quot;&gt;&lt;b&gt;AnswerIsValid&lt;/b&gt;&lt;/span&gt;" style="whiteSpace=wrap;html=1;strokeWidth=2;" parent="1" vertex="1">
          <mxGeometry x="12987" y="3885" width="261" height="80" as="geometry" />
        </mxCell>
        <mxCell id="zIbtgdpSCptLn_aJRIT2-4" value="&lt;span style=&quot;font-size: 27px;&quot;&gt;&lt;b&gt;ChoiceLetter&lt;/b&gt;&lt;/span&gt;" style="rounded=0;whiteSpace=wrap;html=1;strokeWidth=2;" parent="1" vertex="1">
          <mxGeometry x="12444" y="3688.16" width="192" height="80" as="geometry" />
        </mxCell>
        <mxCell id="pw-Zl9Y8lQHd4A05D1jo-1" value="" style="rounded=0;whiteSpace=wrap;html=1;strokeColor=none;rotation=90;" vertex="1" parent="1">
          <mxGeometry x="11010" y="2220" width="120" height="60" as="geometry" />
        </mxCell>
        <mxCell id="pw-Zl9Y8lQHd4A05D1jo-2" value="" style="rounded=0;whiteSpace=wrap;html=1;strokeColor=none;rotation=90;" vertex="1" parent="1">
          <mxGeometry x="14476" y="2187" width="120" height="60" as="geometry" />
        </mxCell>
        <mxCell id="pw-Zl9Y8lQHd4A05D1jo-3" value="" style="rounded=0;whiteSpace=wrap;html=1;strokeColor=none;rotation=90;" vertex="1" parent="1">
          <mxGeometry x="11030" y="2240" width="120" height="60" as="geometry" />
        </mxCell>
        <mxCell id="pw-Zl9Y8lQHd4A05D1jo-5" value="" style="edgeStyle=orthogonalEdgeStyle;rounded=0;orthogonalLoop=1;jettySize=auto;html=1;" edge="1" parent="1" source="pw-Zl9Y8lQHd4A05D1jo-4" target="pw-Zl9Y8lQHd4A05D1jo-2">
          <mxGeometry relative="1" as="geometry" />
        </mxCell>
        <mxCell id="pw-Zl9Y8lQHd4A05D1jo-4" value="" style="rounded=0;whiteSpace=wrap;html=1;strokeColor=none;rotation=90;" vertex="1" parent="1">
          <mxGeometry x="14459" y="2061.88" width="120" height="60" as="geometry" />
        </mxCell>
        <mxCell id="pw-Zl9Y8lQHd4A05D1jo-6" value="" style="rounded=0;whiteSpace=wrap;html=1;strokeColor=none;rotation=0;" vertex="1" parent="1">
          <mxGeometry x="12960" y="47" width="120" height="60" as="geometry" />
        </mxCell>
        <mxCell id="pw-Zl9Y8lQHd4A05D1jo-7" value="" style="rounded=0;whiteSpace=wrap;html=1;strokeColor=none;rotation=0;" vertex="1" parent="1">
          <mxGeometry x="12447" y="4606" width="120" height="60" as="geometry" />
        </mxCell>
      </root>
    </mxGraphModel>
  </diagram>
</mxfile>
